<?xml version="1.0" standalone="no"?>
<!DOCTYPE svg PUBLIC "-//W3C//DTD SVG 20010904//EN"
 "http://www.w3.org/TR/2001/REC-SVG-20010904/DTD/svg10.dtd">
<svg version="1.0" xmlns="http://www.w3.org/2000/svg"
 width="630.000000pt" height="420.000000pt" viewBox="0 0 630.000000 420.000000"
 preserveAspectRatio="xMidYMid meet">

<g transform="translate(0.000000,420.000000) scale(0.100000,-0.100000)"
fill="#000000" stroke="none">
<path d="M3318 3703 c7 -3 16 -2 19 1 4 3 -2 6 -13 5 -11 0 -14 -3 -6 -6z"/>
<path d="M3390 3701 c0 -5 -12 -8 -27 -8 -14 0 -33 -9 -41 -19 -13 -16 -14
-17 -9 -2 5 15 1 17 -21 14 -15 -2 -34 -6 -43 -10 -9 -4 -29 -8 -44 -10 -15
-2 -30 -9 -35 -16 -5 -8 -9 -9 -14 -1 -5 8 -13 8 -27 1 -10 -6 -19 -8 -19 -4
0 3 -6 1 -13 -5 -12 -9 -40 -18 -70 -20 -5 -1 -5 -6 -1 -13 4 -6 3 -8 -3 -5
-6 4 -23 1 -38 -7 -18 -9 -22 -16 -13 -20 7 -3 4 -5 -7 -4 -21 3 -85 -31 -85
-44 0 -4 -3 -7 -7 -6 -16 3 -43 -15 -43 -29 0 -8 -4 -12 -9 -9 -12 8 -116 -93
-116 -112 0 -8 -8 -16 -18 -18 -26 -4 -45 -22 -49 -47 -2 -12 -9 -21 -16 -19
-6 1 -12 -7 -12 -17 0 -11 -4 -23 -10 -26 -5 -3 -10 -13 -10 -21 0 -17 -25
-46 -32 -38 -3 3 -9 -10 -13 -28 -4 -18 -9 -35 -10 -38 -1 -3 -6 -20 -10 -38
-4 -18 -12 -35 -16 -38 -5 -3 -7 -9 -4 -14 3 -5 -4 -31 -14 -58 -11 -27 -18
-64 -16 -81 4 -31 -1 -35 -37 -32 -10 1 -18 -4 -18 -13 0 -23 18 -29 36 -12
22 22 25 20 14 -10 -13 -34 -13 -37 5 -30 8 3 15 1 15 -3 0 -5 -5 -11 -10 -13
-13 -4 -18 -487 -6 -507 6 -10 5 -12 -2 -7 -7 4 -12 3 -12 -2 0 -6 -37 -11
-82 -12 -46 -1 -88 -2 -94 -3 -8 0 -11 -81 -11 -283 0 -204 3 -282 11 -277 8
5 8 3 0 -8 -15 -19 -15 -90 -1 -108 9 -11 9 -13 0 -8 -14 9 -17 -155 -3 -202
5 -19 5 -31 -1 -31 -13 0 -11 -64 3 -78 8 -8 8 -15 1 -24 -7 -9 -10 -117 -8
-318 1 -168 3 -308 4 -312 0 -4 40 -7 89 -7 48 0 98 -2 112 -4 14 -2 29 -1 34
1 5 3 63 4 130 3 82 -1 116 2 106 9 -9 6 -10 10 -3 10 6 0 14 -3 17 -8 8 -13
177 -13 193 0 11 9 16 9 23 -2 6 -10 30 -13 87 -11 43 1 89 1 103 0 32 -1 37
-1 87 4 23 2 41 1 39 -2 -2 -3 27 -5 65 -3 39 2 67 8 63 13 -3 5 0 9 5 9 6 0
11 -5 11 -11 0 -5 8 -9 18 -8 9 1 22 0 27 -1 6 -1 68 -2 140 -2 96 0 130 3
133 12 3 9 -3 11 -22 8 -15 -3 -29 -2 -31 3 -3 4 -14 6 -25 4 -11 -2 -20 0
-20 6 0 5 -7 9 -15 9 -8 0 -15 5 -15 10 0 6 -8 10 -17 8 -14 -2 -17 3 -15 20
2 12 -2 22 -8 22 -7 0 -7 7 1 23 7 12 11 23 10 25 -2 2 1 7 5 10 4 4 4 1 0 -5
-10 -18 10 -16 28 3 20 20 21 30 1 14 -13 -11 -14 -10 -9 4 3 9 1 16 -6 16 -6
0 -8 5 -5 10 3 6 1 10 -5 10 -6 0 -9 4 -6 9 3 5 -1 14 -9 21 -7 6 -11 19 -8
28 4 10 2 13 -3 9 -10 -9 -12 -87 -2 -81 3 2 1 -7 -5 -20 -21 -45 -126 -54
-119 -10 2 16 1 16 -7 4 -9 -12 -11 -9 -11 15 0 23 3 27 10 15 8 -13 10 -13
10 2 0 9 -6 19 -12 21 -10 4 -10 6 0 6 8 1 11 19 10 59 l-1 57 -7 -55 -7 -55
-1 58 c-2 40 2 57 11 57 6 0 0 12 -16 25 -25 22 -29 23 -45 9 -16 -13 -18 -30
-17 -112 1 -102 -8 -132 -39 -132 -15 0 -16 -3 -6 -15 7 -9 8 -15 2 -15 -5 0
-12 7 -16 15 -3 8 -17 15 -31 15 -14 0 -25 4 -25 10 0 11 -39 34 -47 27 -2 -3
0 -15 6 -26 10 -17 9 -20 -5 -14 -9 3 -20 0 -25 -8 -7 -12 -9 -12 -9 0 0 7 -6
11 -15 7 -8 -3 -15 0 -15 6 0 6 -3 8 -6 5 -4 -3 -15 -2 -25 3 -10 6 -20 6 -23
2 -2 -4 -24 -9 -48 -11 -23 -1 -50 -9 -59 -17 -21 -19 -29 -18 -29 4 0 13 2
14 9 3 6 -9 11 -10 15 -2 4 6 3 11 -2 11 -5 0 -24 15 -43 33 -37 35 -44 72
-19 102 12 15 12 17 1 10 -11 -6 -13 -4 -8 9 4 10 7 24 7 32 0 7 6 11 13 8 8
-3 19 2 26 10 18 21 -1 50 -33 52 -14 0 -23 -3 -20 -8 3 -4 -6 -8 -20 -8 -14
0 -26 -5 -26 -11 0 -5 -4 -8 -8 -5 -4 2 -9 -31 -10 -75 -2 -51 1 -79 7 -79 6
0 11 -8 11 -17 0 -15 -2 -16 -10 -3 -8 12 -10 11 -10 -6 0 -24 -24 -49 -39
-40 -5 4 -12 2 -15 -3 -6 -10 -18 -9 -53 3 -23 7 -26 15 -26 74 l1 33 -20 -21
c-11 -12 -17 -28 -14 -36 3 -8 2 -13 -3 -10 -5 3 -14 -1 -21 -9 -7 -8 -18 -15
-25 -15 -8 0 -15 -4 -17 -9 -1 -5 -16 -13 -32 -17 -21 -5 -27 -4 -22 5 4 6 2
11 -3 11 -6 0 -11 -4 -11 -10 0 -5 -10 -10 -22 -9 -22 0 -22 1 -3 9 19 8 19 9
1 9 -10 1 -25 -7 -33 -16 -8 -10 -12 -12 -8 -5 4 7 -1 12 -12 12 -23 0 -93 57
-93 76 0 8 -4 14 -8 14 -10 0 -12 15 -14 90 -1 39 2 54 11 52 9 -2 9 3 1 17
-8 16 -6 22 7 30 10 6 14 11 10 11 -4 0 1 10 13 22 13 14 16 24 9 29 -7 4 -5
8 6 12 9 4 13 3 10 -3 -8 -13 1 -13 26 0 13 8 19 7 19 0 0 -7 7 -4 16 4 16 17
101 16 97 -1 -1 -4 8 -9 20 -10 44 -4 67 -9 74 -18 5 -4 2 -5 -4 -1 -7 4 -13
2 -13 -3 0 -6 5 -11 11 -11 5 0 8 -4 4 -9 -3 -5 2 -16 10 -24 8 -9 15 -21 15
-27 0 -6 5 -10 12 -8 7 3 12 23 11 50 l-1 46 46 5 c26 2 58 7 72 11 44 13 78
8 100 -14 21 -21 22 -21 35 -3 8 10 15 14 15 8 0 -5 4 -4 9 4 8 13 12 13 27 0
11 -9 15 -9 10 -1 -4 6 -4 12 1 12 4 1 24 3 44 6 25 4 41 0 51 -10 10 -9 19
-11 25 -5 10 10 63 -32 63 -51 0 -6 5 -8 10 -5 6 3 10 1 10 -4 0 -6 4 -11 9
-11 4 0 6 10 4 22 -3 18 3 28 27 42 19 11 35 15 39 9 10 -16 48 -22 48 -7 0 7
-4 11 -9 8 -4 -3 -8 0 -8 5 0 14 17 14 25 2 3 -6 15 -7 28 -5 76 18 124 8 160
-35 19 -23 22 -36 7 -26 -5 3 -10 2 -10 -2 0 -5 9 -14 21 -21 16 -11 18 -16 9
-28 -9 -10 -9 -14 -1 -14 11 0 15 13 12 39 -2 8 2 10 10 5 8 -4 10 -3 5 5 -9
14 59 80 85 83 56 5 80 4 85 -3 2 -4 12 -5 21 -2 12 5 14 3 8 -8 -6 -11 -5
-12 6 -2 16 15 79 17 79 3 0 -6 5 -9 11 -8 7 2 13 -12 15 -30 1 -19 5 -36 8
-39 8 -8 37 18 31 27 -3 5 4 15 15 23 11 7 17 17 13 21 -4 4 0 4 10 0 9 -3 17
-1 17 4 0 12 6 13 90 14 32 0 56 -4 58 -11 2 -6 11 -11 21 -11 9 0 25 -16 35
-35 11 -19 23 -35 28 -35 4 0 7 -3 7 -7 -1 -5 0 -10 1 -13 16 -42 0 -107 -23
-93 -8 4 -8 1 1 -9 12 -14 10 -16 -10 -11 l-23 6 24 -21 c13 -12 27 -19 32
-16 32 19 -35 -74 -76 -106 -17 -14 -18 -13 -12 4 6 16 5 17 -8 6 -8 -7 -12
-17 -8 -23 4 -6 1 -7 -7 -2 -8 5 -30 9 -49 10 -20 1 -46 3 -59 4 -13 0 -20 6
-17 11 3 6 -2 10 -13 10 -23 0 -62 40 -62 63 0 9 -6 17 -12 18 -7 0 -4 5 7 10
17 7 17 8 2 6 -16 -2 -19 -13 -21 -85 -1 -56 -6 -86 -15 -92 -8 -4 -11 -13 -7
-19 5 -7 1 -9 -9 -5 -8 4 -22 1 -30 -6 -8 -6 -19 -9 -25 -5 -6 4 -10 3 -9 -2
4 -23 -3 -30 -26 -25 -14 2 -25 0 -25 -5 0 -5 17 -10 38 -11 20 -1 52 -4 70
-6 19 -3 45 -1 58 4 16 6 24 6 24 -1 0 -6 5 -7 11 -3 7 4 118 6 249 6 203 -2
237 0 237 13 0 8 -4 15 -9 15 -4 0 -8 85 -8 189 0 142 -3 191 -12 194 -10 4
-10 8 1 15 20 14 20 194 0 218 -11 13 -11 18 -1 21 15 6 16 35 0 51 -9 9 -9
12 0 12 10 0 13 77 12 348 -1 491 0 550 10 527 8 -19 9 -19 9 2 1 31 -9 54
-21 47 -6 -4 -5 -10 3 -15 11 -7 11 -9 1 -9 -7 0 -15 7 -19 16 -6 17 -68 18
-90 1 -8 -6 -13 -6 -13 1 0 5 -17 17 -37 25 -21 9 -30 16 -20 16 10 1 15 5 12
11 -3 5 -6 64 -6 131 0 109 -2 120 -17 115 -15 -6 -16 -5 -1 6 14 11 16 38 15
185 -1 94 -5 175 -10 180 -5 5 -6 2 -1 -6 5 -8 4 -12 -1 -8 -5 3 -8 33 -7 66
1 33 -3 63 -8 66 -5 4 -9 15 -9 25 0 31 -22 70 -39 70 -11 0 -12 3 -4 8 7 4
10 17 6 30 -6 24 -18 29 -27 10 -3 -7 -3 -3 0 9 6 25 -12 66 -26 58 -4 -3 -6
3 -3 14 3 12 -3 24 -18 35 -13 9 -18 16 -11 16 7 0 10 5 7 10 -4 6 -11 7 -17
4 -6 -4 -8 -2 -5 3 4 6 -7 21 -23 33 -16 12 -32 31 -35 41 -4 11 -12 16 -21
12 -9 -3 -14 0 -12 8 2 8 -3 13 -10 11 -6 -1 -11 2 -10 7 4 13 -92 101 -108
101 -7 0 -14 3 -16 8 -5 12 -146 82 -196 97 -57 18 -55 18 -46 3 4 -7 -4 -2
-19 11 -14 12 -30 20 -36 16 -6 -3 -11 -2 -11 3 0 6 -9 8 -20 5 -15 -4 -20 0
-21 13 0 16 -2 15 -9 -3 -10 -24 -22 -31 -17 -11 1 8 -13 12 -40 13 -44 0 -57
10 -25 18 13 4 11 5 -5 6 -13 0 -23 -3 -23 -8z m-240 -61 c0 -5 -5 -10 -11
-10 -5 0 -7 5 -4 10 3 6 8 10 11 10 2 0 4 -4 4 -10z m57 4 c-3 -3 -12 -4 -19
-1 -8 3 -5 6 6 6 11 1 17 -2 13 -5z m73 -14 c0 -5 -4 -10 -10 -10 -5 0 -10 5
-10 10 0 6 5 10 10 10 6 0 10 -4 10 -10z m390 -10 c8 -5 11 -12 8 -16 -4 -3
-14 1 -23 10 -18 17 -9 21 15 6z m-170 -10 c0 -5 -4 -10 -10 -10 -5 0 -10 5
-10 10 0 6 5 10 10 10 6 0 10 -4 10 -10z m97 -16 c14 -14 23 -28 20 -31 -6 -5
-57 41 -57 52 0 11 12 4 37 -21z m-377 0 c0 -3 -7 -12 -15 -21 -20 -19 -32
-10 -14 11 14 15 29 21 29 10z m120 -4 c0 -5 -9 -10 -20 -10 -11 0 -20 5 -20
10 0 6 9 10 20 10 11 0 20 -4 20 -10z m435 -20 c3 -5 1 -10 -4 -10 -6 0 -11 5
-11 10 0 6 2 10 4 10 3 0 8 -4 11 -10z m-815 -20 c0 -5 -7 -7 -15 -4 -8 4 -12
10 -9 15 6 11 24 2 24 -11z m-40 -40 c0 -5 -4 -10 -10 -10 -5 0 -10 5 -10 10
0 6 5 10 10 10 6 0 10 -4 10 -10z m970 1 c0 -5 7 -16 15 -25 8 -8 12 -17 7
-20 -4 -2 -15 9 -24 25 -10 16 -13 29 -8 29 6 0 10 -4 10 -9z m-850 -21 c0 -5
-4 -10 -10 -10 -5 0 -10 5 -10 10 0 6 5 10 10 10 6 0 10 -4 10 -10z m820 -20
c0 -5 -4 -10 -10 -10 -5 0 -10 5 -10 10 0 6 5 10 10 10 6 0 10 -4 10 -10z m0
-60 c0 -5 -4 -10 -10 -10 -5 0 -10 5 -10 10 0 6 5 10 10 10 6 0 10 -4 10 -10z
m100 0 c0 -5 -4 -10 -10 -10 -5 0 -10 5 -10 10 0 6 5 10 10 10 6 0 10 -4 10
-10z m-640 -20 c0 -5 -4 -10 -10 -10 -5 0 -10 5 -10 10 0 6 5 10 10 10 6 0 10
-4 10 -10z m100 0 c0 -5 -9 -10 -20 -10 -11 0 -20 5 -20 10 0 6 9 10 20 10 11
0 20 -4 20 -10z m80 -20 c0 -5 -4 -10 -10 -10 -5 0 -10 5 -10 10 0 6 5 10 10
10 6 0 10 -4 10 -10z m-260 -16 c0 -3 -7 -12 -15 -21 -20 -19 -32 -10 -14 11
14 15 29 21 29 10z m800 -24 c0 -5 -4 -10 -10 -10 -5 0 -10 5 -10 10 0 6 5 10
10 10 6 0 10 -4 10 -10z m-625 -30 c3 -5 1 -10 -4 -10 -6 0 -11 5 -11 10 0 6
2 10 4 10 3 0 8 -4 11 -10z m62 -34 c-1 -4 6 -10 15 -11 36 -6 88 -27 88 -35
0 -5 7 -7 15 -4 9 4 15 0 15 -7 0 -11 3 -11 10 1 8 13 10 13 10 -2 0 -9 9 -19
20 -23 11 -3 27 -16 37 -28 11 -13 26 -21 38 -19 14 2 16 0 7 -6 -10 -6 -7
-15 12 -35 14 -15 22 -27 18 -27 -4 0 1 -5 11 -11 9 -5 17 -16 17 -24 0 -8 5
-17 12 -21 7 -5 8 -3 3 6 -5 9 -4 11 4 6 6 -4 9 -11 6 -16 -3 -4 2 -24 10 -44
9 -20 13 -42 9 -48 -5 -7 -2 -9 7 -6 13 5 16 -38 18 -318 2 -247 0 -324 -9
-324 -10 0 -10 -3 -1 -14 9 -11 9 -16 0 -22 -8 -4 -9 -3 -5 5 9 14 -52 13 -71
-2 -9 -6 -13 -6 -13 2 0 15 -53 14 -68 -1 -7 -7 -12 -8 -12 -3 0 13 -700 13
-719 1 -9 -6 -12 -5 -8 1 4 6 -9 10 -29 11 -28 1 -35 -2 -30 -14 3 -8 2 -12
-4 -9 -12 7 -8 663 4 689 8 15 6 18 -5 11 -8 -4 -4 2 9 14 12 12 20 26 17 32
-4 5 -1 9 6 9 7 0 4 7 -7 16 -12 10 -14 14 -4 11 8 -2 23 5 33 16 21 25 22 31
1 23 -8 -3 -12 -2 -9 4 3 6 12 10 19 10 16 0 49 47 42 59 -3 4 1 17 9 27 8 10
15 14 15 8 0 -5 -6 -16 -12 -23 -11 -10 -10 -11 5 -6 9 4 17 12 17 18 0 6 3 8
6 5 3 -3 16 5 29 18 13 13 31 24 40 24 9 0 13 5 10 10 -3 6 3 10 14 10 12 0
21 4 21 9 0 8 41 24 65 25 6 1 13 5 16 9 3 4 28 10 55 14 27 3 50 6 51 7 8 6
141 -1 140 -8z m283 -36 c0 -5 -4 -10 -10 -10 -5 0 -10 5 -10 10 0 6 5 10 10
10 6 0 10 -4 10 -10z m-860 -20 c0 -5 -4 -10 -10 -10 -5 0 -10 5 -10 10 0 6 5
10 10 10 6 0 10 -4 10 -10z m900 -16 c0 -3 -7 -12 -15 -21 -20 -19 -32 -10
-14 11 14 15 29 21 29 10z m-840 -24 c0 -5 -4 -10 -10 -10 -5 0 -10 5 -10 10
0 6 5 10 10 10 6 0 10 -4 10 -10z m-260 -20 c0 -5 -5 -10 -11 -10 -5 0 -7 5
-4 10 3 6 8 10 11 10 2 0 4 -4 4 -10z m-80 -20 c0 -5 -4 -10 -10 -10 -5 0 -10
5 -10 10 0 6 5 10 10 10 6 0 10 -4 10 -10z m100 -40 c0 -5 -4 -10 -10 -10 -5
0 -10 5 -10 10 0 6 5 10 10 10 6 0 10 -4 10 -10z m200 -24 c0 -8 -4 -18 -10
-21 -5 -3 -10 3 -10 14 0 12 5 21 10 21 6 0 10 -6 10 -14z m905 4 c-3 -5 -10
-10 -16 -10 -5 0 -9 5 -9 10 0 6 7 10 16 10 8 0 12 -4 9 -10z m-1285 -40 c0
-5 -4 -10 -10 -10 -5 0 -10 5 -10 10 0 6 5 10 10 10 6 0 10 -4 10 -10z m20
-56 c0 -3 -7 -12 -15 -21 -20 -19 -32 -10 -14 11 14 15 29 21 29 10z m0 -144
c0 -16 -4 -30 -10 -30 -5 0 -10 9 -10 20 0 11 -4 20 -10 20 -5 0 -10 5 -10 10
0 6 9 10 20 10 16 0 20 -7 20 -30z m1660 0 c0 -5 -4 -10 -10 -10 -5 0 -10 5
-10 10 0 6 5 10 10 10 6 0 10 -4 10 -10z m36 -116 c-4 -9 -9 -15 -11 -12 -3 3
-3 13 1 22 4 9 9 15 11 12 3 -3 3 -13 -1 -22z m-1759 -66 c-3 -7 -5 -2 -5 12
0 14 2 19 5 13 2 -7 2 -19 0 -25z m43 -18 c0 -5 -4 -10 -10 -10 -5 0 -10 5
-10 10 0 6 5 10 10 10 6 0 10 -4 10 -10z m1640 -20 c0 -5 -4 -10 -10 -10 -5 0
-10 5 -10 10 0 6 5 10 10 10 6 0 10 -4 10 -10z m-1640 -40 c0 -5 -4 -10 -10
-10 -5 0 -10 5 -10 10 0 6 5 10 10 10 6 0 10 -4 10 -10z m1640 -20 c0 -5 -4
-10 -10 -10 -5 0 -10 5 -10 10 0 6 5 10 10 10 6 0 10 -4 10 -10z m-1640 -20
c0 -5 -4 -10 -10 -10 -5 0 -10 5 -10 10 0 6 5 10 10 10 6 0 10 -4 10 -10z
m1655 -40 c-3 -5 -13 -10 -21 -10 -8 0 -14 5 -14 10 0 6 9 10 21 10 11 0 17
-4 14 -10z m52 -132 c-3 -8 -6 -5 -6 6 -1 11 2 17 5 13 3 -3 4 -12 1 -19z
m-1707 -78 c0 -11 -4 -20 -10 -20 -5 0 -10 9 -10 20 0 11 5 20 10 20 6 0 10
-9 10 -20z m1740 -54 c0 -2 -7 -7 -16 -10 -8 -3 -12 -2 -9 4 6 10 25 14 25 6z
m-1980 -16 c0 -5 -2 -10 -4 -10 -3 0 -8 5 -11 10 -3 6 -1 10 4 10 6 0 11 -4
11 -10z m213 3 c-7 -2 -13 -11 -13 -19 0 -8 -4 -14 -10 -14 -5 0 -10 4 -10 8
0 12 22 32 35 31 5 0 4 -3 -2 -6z m467 -3 c0 -5 -2 -10 -4 -10 -3 0 -8 5 -11
10 -3 6 -1 10 4 10 6 0 11 -4 11 -10z m-520 -20 c0 -5 -4 -10 -10 -10 -5 0
-10 5 -10 10 0 6 5 10 10 10 6 0 10 -4 10 -10z m580 0 c0 -5 -4 -10 -10 -10
-5 0 -10 5 -10 10 0 6 5 10 10 10 6 0 10 -4 10 -10z m1140 0 c0 -5 -4 -10 -10
-10 -5 0 -10 5 -10 10 0 6 5 10 10 10 6 0 10 -4 10 -10z m-1280 -20 c0 -5 -4
-10 -10 -10 -5 0 -10 5 -10 10 0 6 5 10 10 10 6 0 10 -4 10 -10z m800 0 c0 -5
-4 -10 -10 -10 -5 0 -10 5 -10 10 0 6 5 10 10 10 6 0 10 -4 10 -10z m-1384
-57 c-13 -14 -25 9 -13 28 12 20 12 20 15 -1 2 -12 1 -24 -2 -27z m191 32 c8
-9 13 -19 10 -22 -6 -5 -37 21 -37 31 0 10 11 6 27 -9z m533 -5 c0 -11 -4 -20
-10 -20 -5 0 -10 9 -10 20 0 11 5 20 10 20 6 0 10 -9 10 -20z m1270 5 c-7 -9
-15 -13 -17 -11 -7 7 7 26 19 26 6 0 6 -6 -2 -15z m-1350 -15 c0 -5 -4 -10
-10 -10 -5 0 -10 5 -10 10 0 6 5 10 10 10 6 0 10 -4 10 -10z m-570 -145 c7 -9
11 -18 8 -20 -6 -6 -58 18 -58 28 0 13 37 7 50 -8z m-93 -52 c-3 -10 -5 -4 -5
12 0 17 2 24 5 18 2 -7 2 -21 0 -30z m43 -3 c0 -5 -4 -10 -10 -10 -5 0 -10 5
-10 10 0 6 5 10 10 10 6 0 10 -4 10 -10z m40 -30 c0 -11 -4 -20 -10 -20 -5 0
-10 9 -10 20 0 11 5 20 10 20 6 0 10 -9 10 -20z m-76 -5 c-4 -8 -11 -15 -16
-15 -6 0 -5 6 2 15 7 8 14 15 16 15 2 0 1 -7 -2 -15z m36 -65 c0 -5 -4 -10
-10 -10 -5 0 -10 5 -10 10 0 6 5 10 10 10 6 0 10 -4 10 -10z m0 -40 c0 -5 -2
-10 -4 -10 -3 0 -8 5 -11 10 -3 6 -1 10 4 10 6 0 11 -4 11 -10z m0 -40 c0 -5
-5 -10 -11 -10 -5 0 -7 5 -4 10 3 6 8 10 11 10 2 0 4 -4 4 -10z m-37 -35 c-3
-9 -8 -14 -10 -11 -3 3 -2 9 2 15 9 16 15 13 8 -4z m-5 -90 c-3 -3 -9 2 -12
12 -6 14 -5 15 5 6 7 -7 10 -15 7 -18z m42 -15 c0 -5 -4 -10 -10 -10 -5 0 -10
5 -10 10 0 6 5 10 10 10 6 0 10 -4 10 -10z m0 -140 c0 -5 -4 -10 -10 -10 -5 0
-10 5 -10 10 0 6 5 10 10 10 6 0 10 -4 10 -10z m-42 -106 c-3 -14 -5 -12 -10
9 -3 19 -2 25 4 19 6 -6 8 -18 6 -28z m42 -14 c0 -5 -4 -10 -10 -10 -5 0 -10
5 -10 10 0 6 5 10 10 10 6 0 10 -4 10 -10z m2040 -60 c0 -5 -4 -10 -10 -10 -5
0 -10 5 -10 10 0 6 5 10 10 10 6 0 10 -4 10 -10z m-160 -20 c0 -5 -4 -10 -10
-10 -5 0 -10 5 -10 10 0 6 5 10 10 10 6 0 10 -4 10 -10z m30 -70 c-13 -8 -12
-10 3 -10 9 0 17 -6 17 -12 0 -9 3 -8 10 2 6 9 5 17 -3 22 -8 5 -3 8 11 8 14
0 21 -4 16 -11 -4 -7 1 -7 16 1 20 11 21 10 15 -12 -7 -20 -6 -21 8 -10 9 8
28 12 44 10 24 -3 28 -7 29 -38 3 -75 -3 -85 -49 -87 -23 0 -45 4 -49 11 -6 8
-8 7 -8 -1 0 -7 -7 -13 -15 -13 -11 0 -15 11 -16 38 0 20 -3 31 -6 25 -2 -7
-10 -13 -18 -13 -7 0 -12 -10 -11 -22 1 -14 -5 -23 -14 -23 -11 0 -17 15 -20
50 -4 31 -8 41 -10 28 l-5 -23 -11 24 c-18 39 -1 66 43 66 28 0 34 -3 23 -10z
m-1890 -50 c0 -5 -2 -10 -4 -10 -3 0 -8 5 -11 10 -3 6 -1 10 4 10 6 0 11 -4
11 -10z m80 0 c0 -5 -4 -10 -10 -10 -5 0 -10 5 -10 10 0 6 5 10 10 10 6 0 10
-4 10 -10z m220 0 c0 -5 -4 -10 -10 -10 -5 0 -10 5 -10 10 0 6 5 10 10 10 6 0
10 -4 10 -10z m104 -14 c-6 -15 -24 -23 -24 -11 0 8 24 34 28 30 1 -1 0 -10
-4 -19z m216 14 c0 -5 -6 -10 -14 -10 -8 0 -18 5 -21 10 -3 6 3 10 14 10 12 0
21 -4 21 -10z m320 0 c0 -5 -2 -10 -4 -10 -3 0 -8 5 -11 10 -3 6 -1 10 4 10 6
0 11 -4 11 -10z m600 0 c0 -5 -4 -10 -10 -10 -5 0 -10 5 -10 10 0 6 5 10 10
10 6 0 10 -4 10 -10z m20 -40 c0 -5 -7 -10 -16 -10 -8 0 -12 5 -9 10 3 6 10
10 16 10 5 0 9 -4 9 -10z m-1060 -4 c0 -2 -7 -7 -16 -10 -8 -3 -12 -2 -9 4 6
10 25 14 25 6z m350 -6 c8 -5 11 -12 8 -16 -4 -3 -14 1 -23 10 -18 17 -9 21
15 6z m400 0 c8 -5 11 -12 8 -16 -4 -3 -14 1 -23 10 -18 17 -9 21 15 6z m-822
-17 c-10 -2 -28 -2 -40 0 -13 2 -5 4 17 4 22 1 32 -1 23 -4z m-472 -40 c-10
-10 -19 5 -10 18 6 11 8 11 12 0 2 -7 1 -15 -2 -18z m-9 -19 c-3 -3 -12 -4
-19 -1 -8 3 -5 6 6 6 11 1 17 -2 13 -5z m13 -94 c0 -5 -4 -10 -10 -10 -5 0
-10 5 -10 10 0 6 5 10 10 10 6 0 10 -4 10 -10z m573 -75 c-3 -9 -8 -14 -10
-11 -3 3 -2 9 2 15 9 16 15 13 8 -4z m-533 -85 c0 -5 -2 -10 -4 -10 -3 0 -8 5
-11 10 -3 6 -1 10 4 10 6 0 11 -4 11 -10z m516 -48 c-4 -3 -11 0 -16 8 -15 24
-11 33 6 15 9 -9 13 -19 10 -23z m564 8 c0 -5 -9 -10 -20 -10 -11 0 -20 5 -20
10 0 6 9 10 20 10 11 0 20 -4 20 -10z m780 -20 c0 -5 -4 -10 -10 -10 -5 0 -10
5 -10 10 0 6 5 10 10 10 6 0 10 -4 10 -10z m-1680 -25 c0 -14 -4 -25 -10 -25
-5 0 -10 11 -10 25 0 14 5 25 10 25 6 0 10 -11 10 -25z m300 21 c0 -3 -4 -8
-10 -11 -5 -3 -10 -1 -10 4 0 6 5 11 10 11 6 0 10 -2 10 -4z m-480 -16 c0 -5
-4 -10 -10 -10 -5 0 -10 5 -10 10 0 6 5 10 10 10 6 0 10 -4 10 -10z m680 0 c0
-5 -4 -10 -10 -10 -5 0 -10 5 -10 10 0 6 5 10 10 10 6 0 10 -4 10 -10z m220 0
c0 -5 -7 -10 -16 -10 -8 0 -12 5 -9 10 3 6 10 10 16 10 5 0 9 -4 9 -10z m760
0 c0 -5 -4 -10 -10 -10 -5 0 -10 5 -10 10 0 6 5 10 10 10 6 0 10 -4 10 -10z
m-1593 -25 c8 -9 13 -19 10 -22 -6 -5 -37 21 -37 31 0 10 11 6 27 -9z m533 5
c0 -5 -4 -10 -10 -10 -5 0 -10 5 -10 10 0 6 5 10 10 10 6 0 10 -4 10 -10z
m977 -20 c0 -16 -4 -30 -9 -30 -10 0 -11 44 -1 53 9 10 10 10 10 -23z m-650
-5 c8 -9 13 -19 10 -22 -6 -5 -37 21 -37 31 0 10 11 6 27 -9z m73 5 c0 -5 -4
-10 -10 -10 -5 0 -10 5 -10 10 0 6 5 10 10 10 6 0 10 -4 10 -10z m40 0 c0 -5
-4 -10 -10 -10 -5 0 -10 5 -10 10 0 6 5 10 10 10 6 0 10 -4 10 -10z m60 0 c0
-5 -4 -10 -10 -10 -5 0 -10 5 -10 10 0 6 5 10 10 10 6 0 10 -4 10 -10z m787
-5 c8 -9 13 -19 10 -22 -6 -5 -37 21 -37 31 0 10 11 6 27 -9z m53 5 c0 -5 -5
-10 -11 -10 -5 0 -7 5 -4 10 3 6 8 10 11 10 2 0 4 -4 4 -10z m-1760 -20 c0 -5
-4 -10 -10 -10 -5 0 -10 5 -10 10 0 6 5 10 10 10 6 0 10 -4 10 -10z m40 0 c0
-5 -4 -10 -10 -10 -5 0 -10 5 -10 10 0 6 5 10 10 10 6 0 10 -4 10 -10z m520 0
c0 -5 -4 -10 -10 -10 -5 0 -10 5 -10 10 0 6 5 10 10 10 6 0 10 -4 10 -10z
m100 0 c0 -5 -4 -10 -10 -10 -5 0 -10 5 -10 10 0 6 5 10 10 10 6 0 10 -4 10
-10z m340 0 c0 -5 -4 -10 -10 -10 -5 0 -10 5 -10 10 0 6 5 10 10 10 6 0 10 -4
10 -10z m540 0 c0 -5 -4 -10 -10 -10 -5 0 -10 5 -10 10 0 6 5 10 10 10 6 0 10
-4 10 -10z m-1590 -20 c8 -5 11 -10 5 -10 -5 0 -17 5 -25 10 -8 5 -10 10 -5
10 6 0 17 -5 25 -10z m1660 0 c-8 -5 -19 -10 -25 -10 -5 0 -3 5 5 10 8 5 20
10 25 10 6 0 3 -5 -5 -10z"/>
<path d="M4250 1139 c0 -5 5 -7 10 -4 6 3 10 8 10 11 0 2 -4 4 -10 4 -5 0 -10
-5 -10 -11z"/>
<path d="M5125 3699 c-4 -6 -4 -13 -1 -16 8 -8 36 5 36 17 0 13 -27 13 -35 -1z"/>
<path d="M5280 3640 c-13 -9 -13 -11 0 -20 31 -20 69 -8 49 17 -13 15 -28 16
-49 3z"/>
<path d="M1330 3604 c0 -9 7 -14 17 -12 25 5 28 28 4 28 -12 0 -21 -6 -21 -16z"/>
<path d="M1484 3549 c-3 -6 0 -15 7 -20 12 -7 22 -7 58 0 2 1 -2 8 -9 16 -15
18 -46 20 -56 4z"/>
<path d="M5620 3551 c0 -5 7 -14 15 -21 18 -15 42 1 31 19 -8 13 -46 15 -46 2z"/>
<path d="M4613 3469 c-31 -28 -42 -49 -25 -49 16 1 63 51 60 65 -2 11 -11 7
-35 -16z"/>
<path d="M1490 3480 c0 -5 5 -10 11 -10 5 0 7 5 4 10 -3 6 -8 10 -11 10 -2 0
-4 -4 -4 -10z"/>
<path d="M5950 3481 c0 -5 6 -14 14 -20 16 -13 32 2 21 19 -8 12 -35 13 -35 1z"/>
<path d="M1830 3461 c0 -5 7 -14 15 -21 18 -15 42 1 31 19 -8 13 -46 15 -46 2z"/>
<path d="M4850 3459 c0 -5 5 -7 10 -4 6 3 10 8 10 11 0 2 -4 4 -10 4 -5 0 -10
-5 -10 -11z"/>
<path d="M815 3375 c-24 -25 -33 -45 -17 -45 12 1 62 48 62 60 0 17 -18 11
-45 -15z"/>
<path d="M2160 3391 c0 -5 6 -14 14 -20 16 -13 32 2 21 19 -8 12 -35 13 -35 1z"/>
<path d="M5156 3391 c-4 -7 -5 -15 -2 -18 9 -9 19 4 14 18 -4 11 -6 11 -12 0z"/>
<path d="M5048 3379 c-26 -15 -22 -39 6 -39 25 0 37 15 28 38 -5 14 -11 15
-34 1z"/>
<path d="M5440 3379 c0 -5 5 -7 10 -4 6 3 10 8 10 11 0 2 -4 4 -10 4 -5 0 -10
-5 -10 -11z"/>
<path d="M1060 3369 c0 -5 5 -7 10 -4 6 3 10 8 10 11 0 2 -4 4 -10 4 -5 0 -10
-5 -10 -11z"/>
<path d="M5522 3363 c2 -10 13 -19 26 -21 17 -3 22 2 22 17 0 16 -6 21 -26 21
-19 0 -25 -5 -22 -17z"/>
<path d="M6002 3343 c4 -22 38 -30 38 -10 0 8 -7 18 -16 21 -23 9 -26 8 -22
-11z"/>
<path d="M4778 3333 c7 -3 16 -2 19 1 4 3 -2 6 -13 5 -11 0 -14 -3 -6 -6z"/>
<path d="M5815 3330 c3 -5 8 -10 11 -10 2 0 4 5 4 10 0 6 -5 10 -11 10 -5 0
-7 -4 -4 -10z"/>
<path d="M1365 3300 c-3 -5 -1 -10 4 -10 6 0 11 5 11 10 0 6 -2 10 -4 10 -3 0
-8 -4 -11 -10z"/>
<path d="M1650 3300 c0 -5 5 -10 11 -10 5 0 7 5 4 10 -3 6 -8 10 -11 10 -2 0
-4 -4 -4 -10z"/>
<path d="M1250 3285 c-15 -17 -5 -35 20 -35 19 0 30 17 23 38 -6 16 -28 15
-43 -3z"/>
<path d="M4730 3290 c0 -5 5 -10 10 -10 6 0 10 5 10 10 0 6 -4 10 -10 10 -5 0
-10 -4 -10 -10z"/>
<path d="M1732 3273 c2 -10 13 -19 26 -21 17 -3 22 2 22 17 0 16 -6 21 -26 21
-19 0 -25 -5 -22 -17z"/>
<path d="M2210 3256 c0 -14 29 -31 38 -22 2 3 2 12 -1 21 -8 19 -37 20 -37 1z"/>
<path d="M5760 3250 c0 -5 5 -10 10 -10 6 0 10 5 10 10 0 6 -4 10 -10 10 -5 0
-10 -4 -10 -10z"/>
<path d="M4605 3220 c-3 -5 -1 -10 4 -10 6 0 11 5 11 10 0 6 -2 10 -4 10 -3 0
-8 -4 -11 -10z"/>
<path d="M4876 3222 c-3 -6 -1 -14 5 -17 15 -10 25 3 12 16 -7 7 -13 7 -17 1z"/>
<path d="M5710 3221 c0 -5 5 -13 10 -16 6 -3 10 -2 10 4 0 5 -4 13 -10 16 -5
3 -10 2 -10 -4z"/>
<path d="M946 3211 c-4 -7 -5 -15 -2 -18 9 -9 19 4 14 18 -4 11 -6 11 -12 0z"/>
<path d="M4845 3190 c-3 -5 3 -10 15 -10 12 0 18 5 15 10 -3 6 -10 10 -15 10
-5 0 -12 -4 -15 -10z"/>
<path d="M5240 3181 c0 -6 5 -13 10 -16 6 -3 10 1 10 9 0 9 -4 16 -10 16 -5 0
-10 -4 -10 -9z"/>
<path d="M5340 3180 c0 -5 7 -10 15 -10 8 0 15 5 15 10 0 6 -7 10 -15 10 -8 0
-15 -4 -15 -10z"/>
<path d="M1970 3166 c0 -9 5 -16 10 -16 6 0 10 4 10 9 0 6 -4 13 -10 16 -5 3
-10 -1 -10 -9z"/>
<path d="M815 3130 c-3 -5 -1 -10 4 -10 6 0 11 5 11 10 0 6 -2 10 -4 10 -3 0
-8 -4 -11 -10z"/>
<path d="M1086 3132 c-3 -6 -1 -14 5 -17 15 -10 25 3 12 16 -7 7 -13 7 -17 1z"/>
<path d="M1920 3130 c0 -5 5 -10 10 -10 6 0 10 5 10 10 0 6 -4 10 -10 10 -5 0
-10 -4 -10 -10z"/>
<path d="M2195 3130 c3 -5 8 -10 11 -10 2 0 4 5 4 10 0 6 -5 10 -11 10 -5 0
-7 -4 -4 -10z"/>
<path d="M1055 3100 c-3 -5 3 -10 15 -10 12 0 18 5 15 10 -3 6 -10 10 -15 10
-5 0 -12 -4 -15 -10z"/>
<path d="M1440 3096 c0 -2 7 -9 15 -16 12 -10 15 -10 15 4 0 9 -7 16 -15 16
-8 0 -15 -2 -15 -4z"/>
<path d="M1550 3090 c0 -5 7 -10 15 -10 8 0 15 5 15 10 0 6 -7 10 -15 10 -8 0
-15 -4 -15 -10z"/>
<path d="M5056 3091 c-4 -5 -2 -12 3 -15 5 -4 12 -2 15 3 4 5 2 12 -3 15 -5 4
-12 2 -15 -3z"/>
<path d="M5531 3091 c-10 -6 -10 -10 -1 -16 13 -8 24 -1 19 14 -3 6 -10 7 -18
2z"/>
<path d="M4690 3021 c-14 -28 -13 -31 15 -31 20 0 25 5 25 25 0 30 -25 34 -40
6z"/>
<path d="M5387 3024 c-4 -4 -7 -18 -7 -31 0 -20 5 -24 23 -21 16 2 22 10 22
28 0 24 -23 39 -38 24z"/>
<path d="M4975 3010 c3 -5 10 -10 16 -10 5 0 9 5 9 10 0 6 -7 10 -16 10 -8 0
-12 -4 -9 -10z"/>
<path d="M1266 3001 c-4 -5 -2 -12 3 -15 5 -4 12 -2 15 3 4 5 2 12 -3 15 -5 4
-12 2 -15 -3z"/>
<path d="M1741 3001 c-10 -6 -10 -10 -1 -16 13 -8 24 -1 19 14 -3 6 -10 7 -18
2z"/>
<path d="M906 2938 c-22 -31 -20 -38 9 -38 20 0 25 5 25 24 0 34 -16 41 -34
14z"/>
<path d="M4367 2943 c-13 -12 -7 -33 8 -33 8 0 15 9 15 20 0 20 -11 26 -23 13z"/>
<path d="M6212 2933 c5 -25 28 -28 28 -4 0 12 -6 21 -16 21 -9 0 -14 -7 -12
-17z"/>
<path d="M1594 2926 c-9 -24 4 -48 23 -44 12 2 18 12 18 28 0 29 -32 41 -41
16z"/>
<path d="M1185 2920 c3 -5 10 -10 16 -10 5 0 9 5 9 10 0 6 -7 10 -16 10 -8 0
-12 -4 -9 -10z"/>
<path d="M4680 2910 c0 -5 5 -10 10 -10 6 0 10 5 10 10 0 6 -4 10 -10 10 -5 0
-10 -4 -10 -10z"/>
<path d="M5200 2891 c-6 -12 -17 -21 -25 -21 -11 0 -14 -10 -12 -34 2 -34 2
-34 30 -20 15 8 27 21 27 29 0 8 9 15 21 15 15 0 20 5 17 23 -4 30 -43 35 -58
8z"/>
<path d="M5357 2903 c-4 -3 -7 -15 -7 -25 0 -21 45 -26 52 -5 11 28 -24 52
-45 30z"/>
<path d="M5822 2888 c-14 -14 2 -48 23 -48 19 0 27 16 20 40 -7 22 -25 26 -43
8z"/>
<path d="M570 2839 c0 -24 23 -21 28 4 2 10 -3 17 -12 17 -10 0 -16 -9 -16
-21z"/>
<path d="M5600 2851 c0 -6 5 -13 10 -16 6 -3 10 1 10 9 0 9 -4 16 -10 16 -5 0
-10 -4 -10 -9z"/>
<path d="M890 2824 c0 -8 5 -12 10 -9 6 4 8 11 5 16 -9 14 -15 11 -15 -7z"/>
<path d="M4886 2831 c-4 -5 -2 -12 3 -15 5 -4 12 -2 15 3 4 5 2 12 -3 15 -5 4
-12 2 -15 -3z"/>
<path d="M1410 2801 c-6 -12 -17 -21 -25 -21 -11 0 -14 -10 -12 -33 2 -32 2
-33 30 -19 15 7 27 20 27 28 0 8 9 14 21 14 15 0 20 5 17 23 -4 30 -43 35 -58
8z"/>
<path d="M1567 2813 c-4 -3 -7 -15 -7 -25 0 -13 7 -18 25 -18 20 0 25 5 25 25
0 18 -5 25 -18 25 -10 0 -22 -3 -25 -7z"/>
<path d="M2035 2800 c-4 -6 -11 -7 -17 -4 -5 4 -2 -5 7 -20 27 -40 64 -30 50
14 -7 21 -30 27 -40 10z"/>
<path d="M6242 2789 c1 -13 8 -23 13 -21 15 3 12 35 -3 40 -9 3 -13 -3 -10
-19z"/>
<path d="M4426 2785 c-8 -21 3 -45 20 -45 9 0 14 11 14 30 0 32 -23 42 -34 15z"/>
<path d="M4500 2784 c0 -8 5 -12 10 -9 6 4 8 11 5 16 -9 14 -15 11 -15 -7z"/>
<path d="M6090 2780 c0 -5 5 -10 10 -10 6 0 10 5 10 10 0 6 -4 10 -10 10 -5 0
-10 -4 -10 -10z"/>
<path d="M1810 2760 c0 -5 5 -10 10 -10 6 0 10 5 10 10 0 6 -4 10 -10 10 -5 0
-10 -4 -10 -10z"/>
<path d="M1096 2741 c-4 -5 -2 -12 3 -15 5 -4 12 -2 15 3 4 5 2 12 -3 15 -5 4
-12 2 -15 -3z"/>
<path d="M4882 2719 c2 -6 8 -10 13 -10 5 0 11 4 13 10 2 6 -4 11 -13 11 -9 0
-15 -5 -13 -11z"/>
<path d="M5172 2718 c-22 -22 -14 -48 13 -48 30 0 43 24 25 45 -15 18 -22 19
-38 3z"/>
<path d="M636 2695 c-8 -21 3 -45 20 -45 9 0 14 11 14 30 0 32 -23 42 -34 15z"/>
<path d="M710 2694 c0 -8 5 -12 10 -9 6 4 8 11 5 16 -9 14 -15 11 -15 -7z"/>
<path d="M5607 2703 c-10 -9 -9 -23 2 -23 5 0 11 7 15 15 5 15 -5 20 -17 8z"/>
<path d="M5051 2687 c-17 -21 -3 -49 23 -45 15 2 21 10 21 28 0 28 -26 38 -44
17z"/>
<path d="M5504 2686 c-10 -26 4 -48 28 -44 17 2 23 10 23 28 0 18 -6 26 -23
28 -13 2 -25 -3 -28 -12z"/>
<path d="M5824 2685 c-8 -21 3 -45 20 -45 16 0 31 34 21 50 -9 15 -35 12 -41
-5z"/>
<path d="M1375 2616 c0 -32 27 -48 47 -28 16 16 0 49 -25 54 -20 4 -23 0 -22
-26z"/>
<path d="M1090 2631 c0 -18 18 -21 30 -6 10 13 9 15 -9 15 -11 0 -21 -4 -21
-9z"/>
<path d="M4680 2630 c0 -5 5 -10 10 -10 6 0 10 5 10 10 0 6 -4 10 -10 10 -5 0
-10 -4 -10 -10z"/>
<path d="M1810 2605 c0 -8 4 -15 9 -15 5 0 11 7 15 15 3 9 0 15 -9 15 -8 0
-15 -7 -15 -15z"/>
<path d="M1261 2597 c-17 -21 -3 -49 23 -45 15 2 21 10 21 28 0 28 -26 38 -44
17z"/>
<path d="M1714 2595 c-4 -9 0 -23 9 -32 21 -21 49 -9 45 19 -4 28 -45 38 -54
13z"/>
<path d="M2037 2603 c-11 -10 -8 -41 4 -49 16 -9 43 21 36 40 -7 16 -28 21
-40 9z"/>
<path d="M5382 2543 c2 -20 8 -28 23 -28 31 0 28 49 -3 53 -20 3 -23 0 -20
-25z"/>
<path d="M890 2540 c0 -5 5 -10 10 -10 6 0 10 5 10 10 0 6 -4 10 -10 10 -5 0
-10 -4 -10 -10z"/>
<path d="M4692 2528 c5 -34 38 -37 38 -4 0 20 -5 26 -21 26 -15 0 -20 -5 -17
-22z"/>
<path d="M4980 2536 c0 -9 5 -16 10 -16 6 0 10 4 10 9 0 6 -4 13 -10 16 -5 3
-10 -1 -10 -9z"/>
<path d="M1587 2461 c-6 -25 14 -44 37 -35 24 9 16 48 -10 52 -15 2 -23 -3
-27 -17z"/>
<path d="M5216 2472 c-3 -6 -1 -14 5 -17 15 -10 25 3 12 16 -7 7 -13 7 -17 1z"/>
<path d="M5370 2460 c0 -5 5 -10 10 -10 6 0 10 5 10 10 0 6 -4 10 -10 10 -5 0
-10 -4 -10 -10z"/>
<path d="M902 2438 c5 -34 38 -37 38 -4 0 20 -5 26 -21 26 -15 0 -20 -5 -17
-22z"/>
<path d="M1190 2445 c0 -8 5 -15 10 -15 6 0 10 7 10 15 0 8 -4 15 -10 15 -5 0
-10 -7 -10 -15z"/>
<path d="M4512 2434 c2 -11 11 -20 22 -22 13 -3 17 1 14 14 -2 11 -11 20 -22
22 -13 3 -17 -1 -14 -14z"/>
<path d="M6057 2443 c-14 -13 -6 -33 13 -33 13 0 20 7 20 20 0 19 -20 27 -33
13z"/>
<path d="M1426 2382 c-3 -6 -1 -14 5 -17 15 -10 25 3 12 16 -7 7 -13 7 -17 1z"/>
<path d="M1580 2370 c0 -5 5 -10 10 -10 6 0 10 5 10 10 0 6 -4 10 -10 10 -5 0
-10 -4 -10 -10z"/>
<path d="M722 2344 c2 -11 11 -20 22 -22 13 -3 17 1 14 14 -2 11 -11 20 -22
22 -13 3 -17 -1 -14 -14z"/>
<path d="M2260 2340 c0 -23 35 -28 43 -6 7 18 -1 26 -25 26 -11 0 -18 -7 -18
-20z"/>
<path d="M4845 2350 c3 -5 10 -10 16 -10 5 0 9 5 9 10 0 6 -7 10 -16 10 -8 0
-12 -4 -9 -10z"/>
<path d="M2225 2320 c-3 -5 -1 -10 4 -10 6 0 11 5 11 10 0 6 -2 10 -4 10 -3 0
-8 -4 -11 -10z"/>
<path d="M4295 2320 c3 -5 8 -10 11 -10 2 0 4 5 4 10 0 6 -5 10 -11 10 -5 0
-7 -4 -4 -10z"/>
<path d="M5764 2307 c-6 -7 -9 -18 -6 -25 3 -10 9 -9 23 4 10 9 16 21 13 25
-7 12 -17 11 -30 -4z"/>
<path d="M4810 2300 c0 -5 5 -10 10 -10 6 0 10 5 10 10 0 6 -4 10 -10 10 -5 0
-10 -4 -10 -10z"/>
<path d="M4426 2285 c4 -8 8 -15 10 -15 2 0 4 7 4 15 0 8 -4 15 -10 15 -5 0
-7 -7 -4 -15z"/>
<path d="M1056 2271 c-4 -5 -2 -12 3 -15 5 -4 12 -2 15 3 4 5 2 12 -3 15 -5 4
-12 2 -15 -3z"/>
<path d="M4730 2256 c0 -9 5 -16 10 -16 6 0 10 4 10 9 0 6 -4 13 -10 16 -5 3
-10 -1 -10 -9z"/>
<path d="M1984 2235 c-3 -14 -10 -25 -15 -25 -5 0 -6 -7 -2 -15 5 -14 8 -14
24 1 12 11 16 21 10 27 -5 5 -7 16 -4 23 3 8 2 14 -1 14 -3 0 -8 -11 -12 -25z"/>
<path d="M5180 2245 c-14 -17 12 -48 33 -39 25 9 23 53 -4 51 -11 -1 -24 -6
-29 -12z"/>
<path d="M5383 2245 c-16 -13 -17 -15 -2 -30 19 -19 49 -10 49 15 0 24 -24 32
-47 15z"/>
<path d="M1026 2221 c-4 -7 -5 -15 -2 -18 9 -9 19 4 14 18 -4 11 -6 11 -12 0z"/>
<path d="M6012 2218 c-7 -7 -12 -18 -12 -25 0 -18 29 -16 37 3 8 21 -10 37
-25 22z"/>
<path d="M945 2160 c3 -5 8 -10 11 -10 2 0 4 5 4 10 0 6 -5 10 -11 10 -5 0 -7
-4 -4 -10z"/>
<path d="M1389 2154 c-10 -12 -9 -18 3 -30 19 -20 50 -7 46 19 -4 24 -32 31
-49 11z"/>
<path d="M1598 2162 c-10 -2 -18 -10 -18 -17 0 -17 30 -34 48 -28 6 3 12 13
12 23 0 20 -16 28 -42 22z"/>
<path d="M4450 2150 c0 -5 5 -10 10 -10 6 0 10 5 10 10 0 6 -4 10 -10 10 -5 0
-10 -4 -10 -10z"/>
<path d="M2220 2124 c-9 -10 -10 -18 -2 -26 12 -12 32 -2 32 17 0 21 -16 26
-30 9z"/>
<path d="M4580 2111 c0 -16 25 -30 39 -22 11 7 9 11 -7 20 -25 13 -32 14 -32
2z"/>
<path d="M4850 2080 c0 -5 5 -10 11 -10 5 0 7 5 4 10 -3 6 -8 10 -11 10 -2 0
-4 -4 -4 -10z"/>
<path d="M4710 2061 c0 -15 28 -33 40 -26 8 5 8 11 -1 21 -13 15 -39 19 -39 5z"/>
<path d="M5853 2055 c-3 -9 -3 -18 0 -22 10 -10 37 6 37 22 0 20 -29 20 -37 0z"/>
<path d="M4930 2050 c0 -5 5 -10 11 -10 5 0 7 5 4 10 -3 6 -8 10 -11 10 -2 0
-4 -4 -4 -10z"/>
<path d="M5180 2030 c0 -5 5 -10 10 -10 6 0 10 5 10 10 0 6 -4 10 -10 10 -5 0
-10 -4 -10 -10z"/>
<path d="M790 2021 c0 -12 26 -32 33 -25 9 10 -4 34 -19 34 -8 0 -14 -4 -14
-9z"/>
<path d="M5626 2005 c-3 -9 1 -18 10 -22 19 -7 39 11 30 26 -10 16 -33 13 -40
-4z"/>
<path d="M1055 1990 c3 -5 11 -10 16 -10 6 0 7 5 4 10 -3 6 -11 10 -16 10 -6
0 -7 -4 -4 -10z"/>
<path d="M2157 1994 c-10 -11 3 -24 24 -24 10 0 19 7 19 15 0 15 -31 21 -43 9z"/>
<path d="M4461 1984 c0 -11 3 -14 6 -6 3 7 2 16 -1 19 -3 4 -6 -2 -5 -13z"/>
<path d="M6120 1979 c0 -5 5 -7 10 -4 6 3 10 8 10 11 0 2 -4 4 -10 4 -5 0 -10
-5 -10 -11z"/>
<path d="M920 1971 c0 -15 28 -33 40 -26 8 5 8 11 -1 21 -13 15 -39 19 -39 5z"/>
<path d="M2063 1965 c-3 -9 -3 -18 0 -22 10 -10 37 6 37 22 0 20 -29 20 -37 0z"/>
<path d="M1865 1960 c-3 -5 -1 -10 4 -10 6 0 11 5 11 10 0 6 -2 10 -4 10 -3 0
-8 -4 -11 -10z"/>
<path d="M1390 1940 c0 -5 5 -10 10 -10 6 0 10 5 10 10 0 6 -4 10 -10 10 -5 0
-10 -4 -10 -10z"/>
<path d="M1615 1940 c-3 -5 -1 -10 4 -10 6 0 11 5 11 10 0 6 -2 10 -4 10 -3 0
-8 -4 -11 -10z"/>
<path d="M6080 1939 c0 -5 5 -7 10 -4 6 3 10 8 10 11 0 2 -4 4 -10 4 -5 0 -10
-5 -10 -11z"/>
<path d="M5095 1930 c3 -5 8 -10 11 -10 2 0 4 5 4 10 0 6 -5 10 -11 10 -5 0
-7 -4 -4 -10z"/>
<path d="M1835 1920 c-4 -7 -3 -16 3 -22 14 -14 45 -2 40 15 -6 16 -34 21 -43
7z"/>
<path d="M670 1900 c0 -5 5 -10 11 -10 5 0 7 5 4 10 -3 6 -8 10 -11 10 -2 0
-4 -4 -4 -10z"/>
<path d="M5118 1835 c-4 -20 -1 -25 16 -25 16 0 22 7 24 25 1 19 -3 25 -17 25
-12 0 -20 -9 -23 -25z"/>
<path d="M1305 1840 c3 -5 8 -10 11 -10 2 0 4 5 4 10 0 6 -5 10 -11 10 -5 0
-7 -4 -4 -10z"/>
<path d="M1700 1840 c0 -5 4 -10 9 -10 6 0 13 5 16 10 3 6 -1 10 -9 10 -9 0
-16 -4 -16 -10z"/>
<path d="M5296 1821 c-8 -12 20 -22 39 -15 19 8 9 24 -15 24 -10 0 -21 -4 -24
-9z"/>
<path d="M1641 1749 c-36 -32 -36 -45 -1 -34 12 4 19 9 16 13 -3 3 3 11 14 19
20 14 27 33 12 33 -4 0 -23 -14 -41 -31z"/>
<path d="M1915 1770 c-3 -5 -1 -10 4 -10 6 0 11 5 11 10 0 6 -2 10 -4 10 -3 0
-8 -4 -11 -10z"/>
<path d="M4670 1771 c0 -14 28 -33 40 -26 20 12 10 35 -15 35 -14 0 -25 -4
-25 -9z"/>
<path d="M1332 1758 c7 -19 38 -22 38 -4 0 10 -9 16 -21 16 -12 0 -19 -5 -17
-12z"/>
<path d="M1885 1750 c-3 -5 -1 -10 4 -10 6 0 11 5 11 10 0 6 -2 10 -4 10 -3 0
-8 -4 -11 -10z"/>
<path d="M1512 1729 c2 -6 7 -10 11 -10 4 1 14 1 23 1 8 0 12 5 9 10 -8 13
-48 13 -43 -1z"/>
<path d="M5005 1710 c-8 -13 3 -30 21 -30 18 0 18 14 0 29 -10 8 -16 9 -21 1z"/>
<path d="M1660 1700 c0 -5 5 -10 11 -10 5 0 7 5 4 10 -3 6 -8 10 -11 10 -2 0
-4 -4 -4 -10z"/>
<path d="M2076 1661 c-15 -16 -15 -19 -1 -31 12 -10 18 -10 30 0 8 7 15 18 15
25 0 21 -27 25 -44 6z"/>
<path d="M2180 1670 c0 -5 5 -10 10 -10 6 0 10 5 10 10 0 6 -4 10 -10 10 -5 0
-10 -4 -10 -10z"/>
<path d="M2210 1636 c0 -2 7 -7 16 -10 8 -3 12 -2 9 4 -6 10 -25 14 -25 6z"/>
<path d="M1805 1620 c-3 -5 -2 -10 4 -10 5 0 13 5 16 10 3 6 2 10 -4 10 -5 0
-13 -4 -16 -10z"/>
<path d="M1491 1604 c0 -11 3 -14 6 -6 3 7 2 16 -1 19 -3 4 -6 -2 -5 -13z"/>
<path d="M4480 1605 c0 -9 5 -15 11 -13 6 2 11 8 11 13 0 5 -5 11 -11 13 -6 2
-11 -4 -11 -13z"/>
<path d="M5142 1598 c5 -15 28 -23 28 -10 0 5 -7 13 -16 16 -10 4 -14 1 -12
-6z"/>
<path d="M4572 1583 c2 -10 13 -19 26 -21 17 -3 22 2 22 17 0 16 -6 21 -26 21
-19 0 -25 -5 -22 -17z"/>
<path d="M1760 1575 c0 -9 5 -15 11 -13 6 2 11 8 11 13 0 5 -5 11 -11 13 -6 2
-11 -4 -11 -13z"/>
<path d="M5050 1566 c0 -7 7 -19 15 -26 12 -10 16 -9 21 3 3 9 3 21 -1 27 -9
15 -35 12 -35 -4z"/>
<path d="M4862 1561 c-11 -7 -11 -9 1 -14 9 -3 18 1 21 9 6 16 -2 18 -22 5z"/>
<path d="M1640 1504 c0 -8 5 -12 10 -9 6 4 8 11 5 16 -9 14 -15 11 -15 -7z"/>
<path d="M1360 1500 c0 -5 9 -10 21 -10 11 0 17 5 14 10 -3 6 -13 10 -21 10
-8 0 -14 -4 -14 -10z"/>
<path d="M1513 1503 c9 -2 23 -2 30 0 6 3 -1 5 -18 5 -16 0 -22 -2 -12 -5z"/>
<path d="M1910 1495 c0 -8 -5 -14 -11 -12 -18 3 -22 -20 -4 -26 8 -4 15 -2 15
4 0 6 3 8 8 6 4 -3 16 4 27 15 17 16 17 18 2 13 -10 -4 -17 -2 -17 4 0 6 -4
11 -10 11 -5 0 -10 -7 -10 -15z"/>
<path d="M4810 1475 c0 -8 7 -15 16 -15 14 0 14 3 4 15 -7 8 -14 15 -16 15 -2
0 -4 -7 -4 -15z"/>
<path d="M4756 1441 c-3 -5 1 -11 9 -15 15 -6 29 7 18 18 -9 9 -21 8 -27 -3z"/>
<path d="M5032 1441 c2 -7 7 -12 11 -12 12 1 9 15 -3 20 -7 2 -11 -2 -8 -8z"/>
<path d="M2090 1370 c0 -5 5 -10 10 -10 6 0 10 5 10 10 0 6 -4 10 -10 10 -5 0
-10 -4 -10 -10z"/>
<path d="M5071 1354 c0 -11 3 -14 6 -6 3 7 2 16 -1 19 -3 4 -6 -2 -5 -13z"/>
<path d="M1730 1315 c-13 -15 -7 -45 8 -45 17 0 33 27 26 44 -8 20 -18 20 -34
1z"/>
<path d="M4581 1311 c-10 -6 -10 -10 -1 -16 13 -8 24 -1 19 14 -3 6 -10 7 -18
2z"/>
<path d="M2016 1302 c-3 -6 -1 -14 5 -17 15 -10 25 3 12 16 -7 7 -13 7 -17 1z"/>
<path d="M1397 1233 c-13 -12 -7 -33 8 -33 8 0 15 9 15 20 0 20 -11 26 -23 13z"/>
<path d="M1715 1200 c-3 -5 -1 -10 4 -10 6 0 11 5 11 10 0 6 -2 10 -4 10 -3 0
-8 -4 -11 -10z"/>
<path d="M2223 1166 c-32 -33 -31 -66 2 -66 23 0 25 4 25 45 0 25 -1 45 -2 45
-2 0 -13 -11 -25 -24z"/>
<path d="M5282 1169 c-13 -5 -22 -14 -20 -21 8 -22 25 -19 42 7 18 27 14 29
-22 14z"/>
<path d="M1920 1110 c0 -5 5 -10 10 -10 6 0 10 5 10 10 0 6 -4 10 -10 10 -5 0
-10 -4 -10 -10z"/>
<path d="M4875 1110 c-4 -6 -11 -7 -17 -4 -6 4 -6 0 1 -13 6 -11 8 -22 6 -25
-2 -2 9 -5 25 -6 31 -2 37 9 24 42 -7 18 -30 21 -39 6z"/>
<path d="M1464 1077 c-9 -24 0 -52 16 -52 19 0 22 41 4 56 -11 9 -15 8 -20 -4z"/>
<path d="M4650 1078 c0 -18 18 -34 28 -24 3 4 -2 14 -11 23 -16 16 -17 16 -17
1z"/>
<path d="M1530 1070 c0 -5 5 -10 10 -10 6 0 10 5 10 10 0 6 -4 10 -10 10 -5 0
-10 -4 -10 -10z"/>
<path d="M2048 1053 c7 -3 16 -2 19 1 4 3 -2 6 -13 5 -11 0 -14 -3 -6 -6z"/>
<path d="M5292 1008 c2 -13 8 -23 13 -23 6 0 11 10 13 23 2 15 -2 22 -13 22
-11 0 -15 -7 -13 -22z"/>
<path d="M1920 1006 c0 -9 5 -16 10 -16 6 0 10 4 10 9 0 6 -4 13 -10 16 -5 3
-10 -1 -10 -9z"/>
<path d="M2197 1003 c-3 -5 -1 -18 4 -31 12 -32 43 -25 47 11 3 23 0 27 -22
27 -14 0 -27 -3 -29 -7z"/>
<path d="M5145 1000 c3 -5 8 -10 11 -10 2 0 4 5 4 10 0 6 -5 10 -11 10 -5 0
-7 -4 -4 -10z"/>
<path d="M3216 984 c-3 -9 -5 -25 -5 -37 1 -17 3 -15 9 8 5 20 8 -6 9 -77 0
-60 4 -108 9 -108 4 0 6 52 4 115 -3 107 -11 138 -26 99z"/>
<path d="M2545 980 c-3 -5 -13 -6 -21 -3 -9 3 -21 -3 -30 -16 -9 -12 -19 -19
-24 -16 -5 3 -5 -7 0 -24 5 -19 4 -33 -3 -41 -9 -8 -8 -10 6 -4 13 5 16 2 11
-10 -4 -10 0 -18 10 -22 9 -3 13 -10 10 -15 -10 -17 12 -9 34 12 13 11 28 17
35 13 9 -6 9 -4 -1 8 -8 10 -10 26 -6 41 7 30 -4 56 -16 37 -5 -8 -9 -7 -13 5
-4 9 -3 14 2 11 5 -3 11 3 14 14 5 21 2 26 -8 10z"/>
<path d="M3716 970 c-8 -34 -5 -75 6 -102 10 -22 18 -27 33 -23 11 4 26 7 33
7 9 1 8 6 -3 18 -11 12 -12 19 -3 28 8 8 8 15 -3 28 -8 11 -9 15 -2 11 9 -6
10 -1 2 20 -7 21 -16 28 -34 28 -14 0 -27 -7 -29 -15z m44 -80 c0 -5 -5 -10
-11 -10 -5 0 -7 5 -4 10 3 6 8 10 11 10 2 0 4 -4 4 -10z"/>
<path d="M4070 982 c0 -4 9 -8 19 -8 11 0 17 4 15 8 -3 4 -12 8 -20 8 -8 0
-14 -4 -14 -8z"/>
<path d="M5406 979 c6 -11 44 -12 44 -1 0 4 -11 8 -25 8 -14 1 -22 -2 -19 -7z"/>
<path d="M2087 973 c-14 -13 -6 -41 13 -46 23 -6 45 16 36 38 -5 15 -37 21
-49 8z"/>
<path d="M2687 953 c-4 -3 -6 -22 -6 -42 l1 -36 8 40 c8 42 8 49 -3 38z"/>
<path d="M3574 936 c-3 -8 -4 -21 -1 -28 3 -7 6 -2 8 12 1 21 3 19 9 -10 l7
-35 2 32 c1 34 -15 54 -25 29z"/>
<path d="M2582 910 c0 -14 2 -19 5 -12 2 6 2 18 0 25 -3 6 -5 1 -5 -13z"/>
<path d="M2702 905 c0 -16 2 -22 5 -12 2 9 2 23 0 30 -3 6 -5 -1 -5 -18z"/>
<path d="M4650 915 c0 -8 4 -15 9 -15 5 0 14 7 21 15 10 13 9 15 -9 15 -12 0
-21 -6 -21 -15z"/>
<path d="M1715 910 c3 -5 8 -10 11 -10 2 0 4 5 4 10 0 6 -5 10 -11 10 -5 0 -7
-4 -4 -10z"/>
<path d="M4554 906 c-10 -26 4 -48 28 -44 17 2 23 10 23 28 0 18 -6 26 -23 28
-13 2 -25 -3 -28 -12z"/>
<path d="M4877 913 c-13 -12 -7 -44 9 -50 18 -7 34 12 34 40 0 17 -30 24 -43
10z"/>
<path d="M3081 887 c0 -10 -5 -16 -10 -12 -5 3 -17 -2 -26 -12 -16 -15 -16
-17 0 -26 23 -13 48 13 42 44 -3 16 -5 18 -6 6z"/>
<path d="M4138 883 c7 -3 16 -2 19 1 4 3 -2 6 -13 5 -11 0 -14 -3 -6 -6z"/>
<path d="M4176 881 c-4 -5 3 -7 14 -4 23 6 26 13 6 13 -8 0 -17 -4 -20 -9z"/>
<path d="M3213 830 c0 -25 2 -35 4 -22 2 12 2 32 0 45 -2 12 -4 2 -4 -23z"/>
<path d="M4067 863 c-11 -10 -8 -20 6 -21 6 -1 23 -3 37 -4 17 -2 26 2 28 15
3 13 -4 17 -31 17 -18 0 -37 -3 -40 -7z"/>
<path d="M1723 824 c-3 -8 1 -22 9 -30 13 -13 16 -13 27 -1 14 17 4 47 -15 47
-8 0 -17 -7 -21 -16z"/>
<path d="M2010 820 c0 -5 7 -10 15 -10 8 0 15 5 15 10 0 6 -7 10 -15 10 -8 0
-15 -4 -15 -10z"/>
<path d="M4861 744 c0 -11 3 -14 6 -6 3 7 2 16 -1 19 -3 4 -6 -2 -5 -13z"/>
<path d="M1547 727 c-6 -15 10 -37 26 -37 12 0 4 43 -9 47 -6 2 -14 -3 -17
-10z"/>
<path d="M3761 726 c-9 -10 -8 -15 2 -19 8 -3 13 3 13 14 0 23 0 23 -15 5z"/>
<path d="M3725 710 c-3 -5 -1 -10 4 -10 6 0 11 5 11 10 0 6 -2 10 -4 10 -3 0
-8 -4 -11 -10z"/>
<path d="M5103 654 c-9 -25 12 -38 31 -19 9 9 14 21 11 26 -10 14 -35 10 -42
-7z"/>
<path d="M1880 640 c0 -5 5 -10 10 -10 6 0 10 5 10 10 0 6 -4 10 -10 10 -5 0
-10 -4 -10 -10z"/>
<path d="M5070 629 c0 -5 5 -7 10 -4 6 3 10 8 10 11 0 2 -4 4 -10 4 -5 0 -10
-5 -10 -11z"/>
<path d="M1850 590 c0 -5 5 -10 11 -10 5 0 7 5 4 10 -3 6 -8 10 -11 10 -2 0
-4 -4 -4 -10z"/>
<path d="M4830 552 c0 -11 -6 -25 -14 -29 -9 -5 -11 -15 -5 -28 4 -11 8 -14 8
-6 1 7 7 11 15 8 10 -4 12 4 9 31 -4 41 -13 57 -13 24z"/>
<path d="M2240 541 c-16 -4 -25 -14 -25 -26 0 -15 7 -20 25 -20 20 0 25 5 25
28 1 15 1 27 0 26 0 -1 -11 -4 -25 -8z"/>
<path d="M2417 533 c-4 -3 -7 -15 -7 -25 0 -29 44 -20 48 10 3 16 -2 22 -16
22 -10 0 -22 -3 -25 -7z"/>
<path d="M3865 531 c-3 -5 -1 -12 5 -16 5 -3 10 1 10 9 0 18 -6 21 -15 7z"/>
<path d="M3040 490 c-9 -17 -8 -20 10 -20 13 0 20 7 20 20 0 11 -4 20 -10 20
-5 0 -14 -9 -20 -20z"/>
<path d="M4758 503 c7 -3 16 -2 19 1 4 3 -2 6 -13 5 -11 0 -14 -3 -6 -6z"/>
<path d="M3235 490 c-3 -5 1 -10 10 -10 9 0 13 5 10 10 -3 6 -8 10 -10 10 -2
0 -7 -4 -10 -10z"/>
<path d="M3780 476 c0 -9 5 -16 10 -16 6 0 10 4 10 9 0 6 -4 13 -10 16 -5 3
-10 -1 -10 -9z"/>
<path d="M4232 470 c-15 -25 6 -52 34 -44 16 4 20 12 16 29 -5 29 -35 38 -50
15z"/>
<path d="M4438 472 c-21 -4 -23 -25 -4 -41 18 -15 46 -3 46 19 0 20 -16 28
-42 22z"/>
<path d="M5062 438 c-7 -7 -12 -18 -12 -25 0 -18 29 -16 37 3 8 21 -10 37 -25
22z"/>
<path d="M3435 420 c3 -5 8 -10 11 -10 2 0 4 5 4 10 0 6 -5 10 -11 10 -5 0 -7
-4 -4 -10z"/>
<path d="M1616 402 c-7 -12 22 -38 31 -28 4 3 0 14 -9 22 -9 10 -18 12 -22 6z"/>
<path d="M1880 371 c0 -5 5 -13 10 -16 6 -3 10 -2 10 4 0 5 -4 13 -10 16 -5 3
-10 2 -10 -4z"/>
<path d="M1746 353 c-8 -9 14 -33 30 -33 8 0 14 4 14 10 0 12 -35 31 -44 23z"/>
<path d="M2890 345 c-10 -12 -9 -16 5 -21 17 -7 38 13 29 28 -8 12 -20 10 -34
-7z"/>
<path d="M3630 337 c0 -19 26 -40 40 -32 13 8 5 22 -21 35 -15 8 -19 7 -19 -3z"/>
<path d="M1965 330 c4 -6 11 -8 16 -5 14 9 11 15 -7 15 -8 0 -12 -5 -9 -10z"/>
<path d="M2690 329 c0 -5 5 -7 10 -4 6 3 10 8 10 11 0 2 -4 4 -10 4 -5 0 -10
-5 -10 -11z"/>
<path d="M3895 300 c3 -5 11 -10 16 -10 6 0 7 5 4 10 -3 6 -11 10 -16 10 -6 0
-7 -4 -4 -10z"/>
<path d="M2662 283 c2 -10 10 -18 18 -18 8 0 16 8 18 18 2 12 -3 17 -18 17
-15 0 -20 -5 -18 -17z"/>
<path d="M3760 281 c0 -15 28 -33 40 -26 8 5 8 11 -1 21 -13 15 -39 19 -39 5z"/>
<path d="M4903 275 c-3 -9 -3 -18 0 -22 10 -10 37 6 37 22 0 20 -29 20 -37 0z"/>
<path d="M1500 270 c0 -5 5 -10 11 -10 5 0 7 5 4 10 -3 6 -8 10 -11 10 -2 0
-4 -4 -4 -10z"/>
<path d="M3980 270 c0 -6 7 -10 15 -10 8 0 15 2 15 4 0 2 -7 6 -15 10 -8 3
-15 1 -15 -4z"/>
<path d="M2315 260 c-3 -5 -1 -10 4 -10 6 0 11 5 11 10 0 6 -2 10 -4 10 -3 0
-8 -4 -11 -10z"/>
<path d="M3150 259 c0 -5 5 -7 10 -4 6 3 10 8 10 11 0 2 -4 4 -10 4 -5 0 -10
-5 -10 -11z"/>
<path d="M4230 250 c0 -5 5 -10 10 -10 6 0 10 5 10 10 0 6 -4 10 -10 10 -5 0
-10 -4 -10 -10z"/>
<path d="M4460 249 c0 -5 5 -7 10 -4 6 3 10 8 10 11 0 2 -4 4 -10 4 -5 0 -10
-5 -10 -11z"/>
<path d="M3116 224 c-5 -14 -4 -15 9 -4 17 14 19 20 6 20 -5 0 -12 -7 -15 -16z"/>
<path d="M4676 225 c-3 -9 1 -18 10 -22 19 -7 39 11 30 26 -10 16 -33 13 -40
-4z"/>
<path d="M5174 205 c-10 -8 -14 -15 -8 -15 6 0 17 7 24 15 16 19 9 19 -16 0z"/>
<path d="M3520 200 c0 -5 5 -10 11 -10 5 0 7 5 4 10 -3 6 -8 10 -11 10 -2 0
-4 -4 -4 -10z"/>
<path d="M5137 173 c-10 -9 -9 -23 2 -23 5 0 11 7 15 15 5 15 -5 20 -17 8z"/>
<path d="M4145 150 c3 -5 8 -10 11 -10 2 0 4 5 4 10 0 6 -5 10 -11 10 -5 0 -7
-4 -4 -10z"/>
<path d="M4550 149 c0 -5 5 -7 10 -4 6 3 10 8 10 11 0 2 -4 4 -10 4 -5 0 -10
-5 -10 -11z"/>
<path d="M2157 121 c-4 -16 -1 -18 16 -12 28 10 34 31 9 31 -11 0 -22 -8 -25
-19z"/>
<path d="M2340 110 c-12 -8 -12 -10 2 -15 20 -8 41 2 33 16 -8 11 -16 11 -35
-1z"/>
<path d="M4172 68 c5 -15 37 -18 41 -3 1 6 -9 12 -22 13 -16 3 -22 -1 -19 -10z"/>
<path d="M4346 41 c-3 -5 1 -11 9 -15 18 -6 45 2 45 15 0 12 -47 12 -54 0z"/>
</g>
</svg>
